<svg width="1123" height="413" viewBox="0 0 1123 413" fill="none" xmlns="http://www.w3.org/2000/svg">
<g opacity="0.28">
<path d="M1001.28 13.3609C1001.28 19.3803 996.457 24.2604 990.502 24.2604C984.548 24.2604 979.721 19.3803 979.721 13.3609C979.721 7.34142 984.548 2.4613 990.502 2.4613C996.438 2.4613 1001.28 7.34142 1001.28 13.3609Z" stroke="#7E7E7E" stroke-width="4.0648" stroke-miterlimit="10" stroke-linecap="round" stroke-linejoin="round"/>
<path d="M998.295 20.8804L1005.9 28.5885" stroke="#7E7E7E" stroke-width="4.0648" stroke-miterlimit="10" stroke-linecap="round" stroke-linejoin="round"/>
<path d="M192.705 14.5812L204.048 26.0484" stroke="#7E7E7E" stroke-width="4.0648" stroke-miterlimit="10" stroke-linecap="round" stroke-linejoin="round"/>
<path d="M204.048 14.5812L192.705 26.0484" stroke="#7E7E7E" stroke-width="4.0648" stroke-miterlimit="10" stroke-linecap="round" stroke-linejoin="round"/>
<path d="M931.288 228.115L942.631 239.582" stroke="#7E7E7E" stroke-width="4.0648" stroke-miterlimit="10" stroke-linecap="round" stroke-linejoin="round"/>
<path d="M942.631 228.115L931.288 239.582" stroke="#7E7E7E" stroke-width="4.0648" stroke-miterlimit="10" stroke-linecap="round" stroke-linejoin="round"/>
<path d="M282.735 364.476L282.735 380.692" stroke="#7E7E7E" stroke-width="4.0648" stroke-miterlimit="10" stroke-linecap="round" stroke-linejoin="round"/>
<path d="M290.775 372.582L274.716 372.582" stroke="#7E7E7E" stroke-width="4.0648" stroke-miterlimit="10" stroke-linecap="round" stroke-linejoin="round"/>
<path d="M22.4965 99.8846C22.4965 105.315 18.1389 109.74 12.7482 109.74C7.37638 109.74 3 105.334 3 99.8846C3 94.4538 7.3576 90.0294 12.7482 90.0294C18.1389 90.0484 22.4965 94.4538 22.4965 99.8846Z" stroke="#7E7E7E" stroke-width="4.0648" stroke-miterlimit="10" stroke-linecap="round" stroke-linejoin="round"/>
<path d="M640.01 400.144C640.01 405.575 635.653 410 630.262 410C624.89 410 620.514 405.594 620.514 400.144C620.514 394.714 624.871 390.289 630.262 390.289C635.653 390.308 640.01 394.714 640.01 400.144Z" stroke="#7E7E7E" stroke-width="4.0648" stroke-miterlimit="10" stroke-linecap="round" stroke-linejoin="round"/>
<path d="M19.1362 229.216C19.1362 230.636 18.0001 231.769 16.6219 231.769C15.2436 231.769 14.1075 230.636 14.1075 229.216C14.1075 227.795 15.2436 226.662 16.6219 226.662C18.0001 226.662 19.1362 227.795 19.1362 229.216Z" stroke="#7E7E7E" stroke-width="2.0324"/>
<path d="M43.7968 229.215C43.7968 230.636 42.6607 231.768 41.2825 231.768C39.9043 231.768 38.7682 230.636 38.7682 229.215C38.7682 227.795 39.9043 226.662 41.2825 226.662C42.6607 226.662 43.7968 227.795 43.7968 229.215Z" stroke="#7E7E7E" stroke-width="2.0324"/>
<path d="M68.4355 229.215C68.4355 230.636 67.2994 231.768 65.9212 231.768C64.543 231.768 63.4068 230.636 63.4068 229.215C63.4068 227.795 64.543 226.662 65.9212 226.662C67.2994 226.662 68.4355 227.795 68.4355 229.215Z" stroke="#7E7E7E" stroke-width="2.0324"/>
<path d="M93.0967 229.215C93.0967 230.636 91.9605 231.768 90.5823 231.768C89.2041 231.768 88.068 230.636 88.068 229.215C88.068 227.795 89.2041 226.662 90.5823 226.662C91.9605 226.662 93.0967 227.795 93.0967 229.215Z" stroke="#7E7E7E" stroke-width="2.0324"/>
<path d="M117.737 229.215C117.737 230.636 116.601 231.768 115.223 231.768C113.845 231.768 112.709 230.636 112.709 229.215C112.709 227.795 113.845 226.662 115.223 226.662C116.601 226.662 117.737 227.795 117.737 229.215Z" stroke="#7E7E7E" stroke-width="2.0324"/>
<path d="M142.397 229.215C142.397 230.636 141.261 231.768 139.883 231.768C138.505 231.768 137.369 230.636 137.369 229.215C137.369 227.795 138.505 226.662 139.883 226.662C141.261 226.662 142.397 227.795 142.397 229.215Z" stroke="#7E7E7E" stroke-width="2.0324"/>
<path d="M19.1348 254.129C19.1348 255.549 17.9986 256.682 16.6204 256.682C15.2422 256.682 14.106 255.549 14.106 254.129C14.106 252.708 15.2422 251.576 16.6204 251.576C17.9986 251.576 19.1348 252.708 19.1348 254.129Z" stroke="#7E7E7E" stroke-width="2.0324"/>
<path d="M43.7956 254.129C43.7956 255.549 42.6595 256.682 41.2813 256.682C39.9031 256.682 38.7669 255.549 38.7669 254.129C38.7669 252.708 39.9031 251.576 41.2813 251.576C42.6595 251.576 43.7956 252.708 43.7956 254.129Z" stroke="#7E7E7E" stroke-width="2.0324"/>
<path d="M68.4365 254.129C68.4365 255.549 67.3004 256.682 65.9222 256.682C64.5439 256.682 63.4078 255.549 63.4078 254.129C63.4078 252.708 64.5439 251.576 65.9222 251.576C67.3004 251.576 68.4365 252.708 68.4365 254.129Z" stroke="#7E7E7E" stroke-width="2.0324"/>
<path d="M93.0967 254.129C93.0967 255.549 91.9605 256.682 90.5823 256.682C89.2041 256.682 88.068 255.549 88.068 254.129C88.068 252.708 89.2041 251.576 90.5823 251.576C91.9605 251.576 93.0967 252.708 93.0967 254.129Z" stroke="#7E7E7E" stroke-width="2.0324"/>
<path d="M117.739 254.129C117.739 255.549 116.603 256.682 115.224 256.682C113.846 256.682 112.71 255.549 112.71 254.129C112.71 252.708 113.846 251.576 115.224 251.576C116.603 251.576 117.739 252.708 117.739 254.129Z" stroke="#7E7E7E" stroke-width="2.0324"/>
<path d="M142.397 254.129C142.397 255.549 141.261 256.682 139.883 256.682C138.505 256.682 137.369 255.549 137.369 254.129C137.369 252.708 138.505 251.576 139.883 251.576C141.261 251.576 142.397 252.708 142.397 254.129Z" stroke="#7E7E7E" stroke-width="2.0324"/>
<path d="M19.1348 279.061C19.1348 280.482 17.9986 281.614 16.6204 281.614C15.2422 281.614 14.106 280.482 14.106 279.061C14.106 277.641 15.2422 276.508 16.6204 276.508C17.9986 276.508 19.1348 277.641 19.1348 279.061Z" stroke="#7E7E7E" stroke-width="2.0324"/>
<path d="M43.7956 279.061C43.7956 280.482 42.6595 281.614 41.2813 281.614C39.9031 281.614 38.7669 280.482 38.7669 279.061C38.7669 277.641 39.9031 276.508 41.2813 276.508C42.6595 276.508 43.7956 277.641 43.7956 279.061Z" stroke="#7E7E7E" stroke-width="2.0324"/>
<path d="M68.4365 279.061C68.4365 280.482 67.3004 281.614 65.9222 281.614C64.5439 281.614 63.4078 280.482 63.4078 279.061C63.4078 277.641 64.5439 276.508 65.9222 276.508C67.3004 276.508 68.4365 277.641 68.4365 279.061Z" stroke="#7E7E7E" stroke-width="2.0324"/>
<path d="M93.0967 279.061C93.0967 280.482 91.9605 281.614 90.5823 281.614C89.2041 281.614 88.068 280.482 88.068 279.061C88.068 277.641 89.2041 276.508 90.5823 276.508C91.9605 276.508 93.0967 277.641 93.0967 279.061Z" stroke="#7E7E7E" stroke-width="2.0324"/>
<path d="M117.739 279.061C117.739 280.482 116.603 281.614 115.224 281.614C113.846 281.614 112.71 280.482 112.71 279.061C112.71 277.641 113.846 276.508 115.224 276.508C116.603 276.508 117.739 277.641 117.739 279.061Z" stroke="#7E7E7E" stroke-width="2.0324"/>
<path d="M142.397 279.061C142.397 280.482 141.261 281.614 139.883 281.614C138.505 281.614 137.369 280.482 137.369 279.061C137.369 277.641 138.505 276.508 139.883 276.508C141.261 276.508 142.397 277.641 142.397 279.061Z" stroke="#7E7E7E" stroke-width="2.0324"/>
<path d="M19.1348 303.974C19.1348 305.395 17.9986 306.527 16.6204 306.527C15.2422 306.527 14.106 305.395 14.106 303.974C14.106 302.554 15.2422 301.421 16.6204 301.421C17.9986 301.421 19.1348 302.554 19.1348 303.974Z" stroke="#7E7E7E" stroke-width="2.0324"/>
<path d="M43.7956 303.974C43.7956 305.395 42.6595 306.527 41.2813 306.527C39.9031 306.527 38.7669 305.395 38.7669 303.974C38.7669 302.554 39.9031 301.421 41.2813 301.421C42.6595 301.421 43.7956 302.554 43.7956 303.974Z" stroke="#7E7E7E" stroke-width="2.0324"/>
<path d="M68.4365 303.974C68.4365 305.395 67.3004 306.527 65.9222 306.527C64.5439 306.527 63.4078 305.395 63.4078 303.974C63.4078 302.554 64.5439 301.421 65.9222 301.421C67.3004 301.421 68.4365 302.554 68.4365 303.974Z" stroke="#7E7E7E" stroke-width="2.0324"/>
<path d="M93.0967 303.974C93.0967 305.395 91.9605 306.527 90.5823 306.527C89.2041 306.527 88.068 305.395 88.068 303.974C88.068 302.554 89.2041 301.421 90.5823 301.421C91.9605 301.421 93.0967 302.554 93.0967 303.974Z" stroke="#7E7E7E" stroke-width="2.0324"/>
<path d="M117.739 303.974C117.739 305.395 116.603 306.527 115.224 306.527C113.846 306.527 112.71 305.395 112.71 303.974C112.71 302.554 113.846 301.421 115.224 301.421C116.603 301.421 117.739 302.554 117.739 303.974Z" stroke="#7E7E7E" stroke-width="2.0324"/>
<path d="M142.397 303.974C142.397 305.395 141.261 306.527 139.883 306.527C138.505 306.527 137.369 305.395 137.369 303.974C137.369 302.554 138.505 301.421 139.883 301.421C141.261 301.421 142.397 302.554 142.397 303.974Z" stroke="#7E7E7E" stroke-width="2.0324"/>
<path d="M1121.98 188.64C1121.98 190.06 1120.85 191.193 1119.47 191.193C1118.09 191.193 1116.95 190.06 1116.95 188.64C1116.95 187.219 1118.09 186.087 1119.47 186.087C1120.85 186.087 1121.98 187.219 1121.98 188.64Z" stroke="#7E7E7E" stroke-width="2.0324"/>
<path d="M1121.98 213.572C1121.98 214.993 1120.85 216.125 1119.47 216.125C1118.09 216.125 1116.96 214.993 1116.96 213.572C1116.96 212.152 1118.09 211.019 1119.47 211.019C1120.85 211.019 1121.98 212.152 1121.98 213.572Z" stroke="#7E7E7E" stroke-width="2.0324"/>
<path d="M1121.98 238.486C1121.98 239.906 1120.85 241.039 1119.47 241.039C1118.09 241.039 1116.96 239.906 1116.96 238.486C1116.96 237.065 1118.09 235.932 1119.47 235.932C1120.85 235.932 1121.98 237.065 1121.98 238.486Z" stroke="#7E7E7E" stroke-width="2.0324"/>
<path d="M1121.98 263.418C1121.98 264.838 1120.85 265.971 1119.47 265.971C1118.09 265.971 1116.96 264.838 1116.96 263.418C1116.96 261.997 1118.09 260.865 1119.47 260.865C1120.85 260.865 1121.98 261.997 1121.98 263.418Z" stroke="#7E7E7E" stroke-width="2.0324"/>
<path d="M1121.98 288.331C1121.98 289.752 1120.85 290.884 1119.47 290.884C1118.09 290.884 1116.96 289.752 1116.96 288.331C1116.96 286.911 1118.09 285.778 1119.47 285.778C1120.85 285.778 1121.98 286.911 1121.98 288.331Z" stroke="#7E7E7E" stroke-width="2.0324"/>
<path d="M1121.98 313.263C1121.98 314.683 1120.85 315.816 1119.47 315.816C1118.09 315.816 1116.96 314.683 1116.96 313.263C1116.96 311.843 1118.09 310.71 1119.47 310.71C1120.85 310.71 1121.98 311.843 1121.98 313.263Z" stroke="#7E7E7E" stroke-width="2.0324"/>
<path d="M1121.98 338.176C1121.98 339.597 1120.85 340.73 1119.47 340.73C1118.09 340.73 1116.96 339.597 1116.96 338.176C1116.96 336.756 1118.09 335.623 1119.47 335.623C1120.85 335.623 1121.98 336.756 1121.98 338.176Z" stroke="#7E7E7E" stroke-width="2.0324"/>
<path d="M1097.33 188.64C1097.33 190.06 1096.19 191.193 1094.81 191.193C1093.43 191.193 1092.3 190.06 1092.3 188.64C1092.3 187.219 1093.43 186.087 1094.81 186.087C1096.19 186.087 1097.33 187.219 1097.33 188.64Z" stroke="#7E7E7E" stroke-width="2.0324"/>
<path d="M1097.33 213.572C1097.33 214.993 1096.19 216.125 1094.81 216.125C1093.43 216.125 1092.3 214.993 1092.3 213.572C1092.3 212.152 1093.43 211.019 1094.81 211.019C1096.19 211.019 1097.33 212.152 1097.33 213.572Z" stroke="#7E7E7E" stroke-width="2.0324"/>
<path d="M1097.33 238.486C1097.33 239.906 1096.19 241.039 1094.81 241.039C1093.43 241.039 1092.3 239.906 1092.3 238.486C1092.3 237.065 1093.43 235.932 1094.81 235.932C1096.19 235.932 1097.33 237.065 1097.33 238.486Z" stroke="#7E7E7E" stroke-width="2.0324"/>
<path d="M1097.33 263.418C1097.33 264.838 1096.19 265.971 1094.81 265.971C1093.43 265.971 1092.3 264.838 1092.3 263.418C1092.3 261.997 1093.43 260.865 1094.81 260.865C1096.19 260.865 1097.33 261.997 1097.33 263.418Z" stroke="#7E7E7E" stroke-width="2.0324"/>
<path d="M1097.33 288.331C1097.33 289.752 1096.19 290.884 1094.81 290.884C1093.43 290.884 1092.3 289.752 1092.3 288.331C1092.3 286.911 1093.43 285.778 1094.81 285.778C1096.19 285.778 1097.33 286.911 1097.33 288.331Z" stroke="#7E7E7E" stroke-width="2.0324"/>
<path d="M1097.33 313.263C1097.33 314.683 1096.19 315.816 1094.81 315.816C1093.43 315.816 1092.3 314.683 1092.3 313.263C1092.3 311.843 1093.43 310.71 1094.81 310.71C1096.19 310.71 1097.33 311.843 1097.33 313.263Z" stroke="#7E7E7E" stroke-width="2.0324"/>
<path d="M1097.33 338.176C1097.33 339.597 1096.19 340.73 1094.81 340.73C1093.43 340.73 1092.3 339.597 1092.3 338.176C1092.3 336.756 1093.43 335.623 1094.81 335.623C1096.19 335.623 1097.33 336.756 1097.33 338.176Z" stroke="#7E7E7E" stroke-width="2.0324"/>
<path d="M1072.68 188.64C1072.68 190.06 1071.55 191.193 1070.17 191.193C1068.79 191.193 1067.65 190.06 1067.65 188.64C1067.65 187.219 1068.79 186.087 1070.17 186.087C1071.55 186.087 1072.68 187.219 1072.68 188.64Z" stroke="#7E7E7E" stroke-width="2.0324"/>
<path d="M1072.68 213.572C1072.68 214.993 1071.55 216.125 1070.17 216.125C1068.79 216.125 1067.65 214.993 1067.65 213.572C1067.65 212.152 1068.79 211.019 1070.17 211.019C1071.55 211.019 1072.68 212.152 1072.68 213.572Z" stroke="#7E7E7E" stroke-width="2.0324"/>
<path d="M1072.68 238.486C1072.68 239.906 1071.55 241.039 1070.17 241.039C1068.79 241.039 1067.65 239.906 1067.65 238.486C1067.65 237.065 1068.79 235.932 1070.17 235.932C1071.55 235.932 1072.68 237.065 1072.68 238.486Z" stroke="#7E7E7E" stroke-width="2.0324"/>
<path d="M1072.68 263.418C1072.68 264.838 1071.55 265.971 1070.17 265.971C1068.79 265.971 1067.65 264.838 1067.65 263.418C1067.65 261.997 1068.79 260.865 1070.17 260.865C1071.55 260.865 1072.68 261.997 1072.68 263.418Z" stroke="#7E7E7E" stroke-width="2.0324"/>
<path d="M1072.68 288.331C1072.68 289.752 1071.55 290.884 1070.17 290.884C1068.79 290.884 1067.65 289.752 1067.65 288.331C1067.65 286.911 1068.79 285.778 1070.17 285.778C1071.55 285.778 1072.68 286.911 1072.68 288.331Z" stroke="#7E7E7E" stroke-width="2.0324"/>
<path d="M1072.68 313.263C1072.68 314.683 1071.55 315.816 1070.17 315.816C1068.79 315.816 1067.65 314.683 1067.65 313.263C1067.65 311.843 1068.79 310.71 1070.17 310.71C1071.55 310.71 1072.68 311.843 1072.68 313.263Z" stroke="#7E7E7E" stroke-width="2.0324"/>
<path d="M1072.68 338.176C1072.68 339.597 1071.55 340.73 1070.17 340.73C1068.79 340.73 1067.65 339.597 1067.65 338.176C1067.65 336.756 1068.79 335.623 1070.17 335.623C1071.55 335.623 1072.68 336.756 1072.68 338.176Z" stroke="#7E7E7E" stroke-width="2.0324"/>
<path d="M1048.02 188.641C1048.02 190.062 1046.89 191.194 1045.51 191.194C1044.13 191.194 1043 190.062 1043 188.641C1043 187.221 1044.13 186.088 1045.51 186.088C1046.89 186.088 1048.02 187.221 1048.02 188.641Z" stroke="#7E7E7E" stroke-width="2.0324"/>
<path d="M1048.02 213.572C1048.02 214.993 1046.89 216.125 1045.51 216.125C1044.13 216.125 1042.99 214.993 1042.99 213.572C1042.99 212.152 1044.13 211.019 1045.51 211.019C1046.89 211.019 1048.02 212.152 1048.02 213.572Z" stroke="#7E7E7E" stroke-width="2.0324"/>
<path d="M1048.02 238.486C1048.02 239.906 1046.89 241.039 1045.51 241.039C1044.13 241.039 1042.99 239.906 1042.99 238.486C1042.99 237.065 1044.13 235.932 1045.51 235.932C1046.89 235.932 1048.02 237.065 1048.02 238.486Z" stroke="#7E7E7E" stroke-width="2.0324"/>
<path d="M1048.02 263.418C1048.02 264.838 1046.89 265.971 1045.51 265.971C1044.13 265.971 1042.99 264.838 1042.99 263.418C1042.99 261.997 1044.13 260.865 1045.51 260.865C1046.89 260.865 1048.02 261.997 1048.02 263.418Z" stroke="#7E7E7E" stroke-width="2.0324"/>
<path d="M1048.02 288.331C1048.02 289.752 1046.89 290.884 1045.51 290.884C1044.13 290.884 1042.99 289.752 1042.99 288.331C1042.99 286.911 1044.13 285.778 1045.51 285.778C1046.89 285.778 1048.02 286.911 1048.02 288.331Z" stroke="#7E7E7E" stroke-width="2.0324"/>
<path d="M1048.02 313.263C1048.02 314.683 1046.89 315.816 1045.51 315.816C1044.13 315.816 1042.99 314.683 1042.99 313.263C1042.99 311.843 1044.13 310.71 1045.51 310.71C1046.89 310.71 1048.02 311.843 1048.02 313.263Z" stroke="#7E7E7E" stroke-width="2.0324"/>
<path d="M1048.02 338.176C1048.02 339.597 1046.89 340.73 1045.51 340.73C1044.13 340.73 1042.99 339.597 1042.99 338.176C1042.99 336.756 1044.13 335.623 1045.51 335.623C1046.89 335.623 1048.02 336.756 1048.02 338.176Z" stroke="#7E7E7E" stroke-width="2.0324"/>
</g>
</svg>
